PathFileType	4	(X/Y/Z)	/Users/visionmauri/1_1_1_f_Sports2D/1_1_1_f_Sports2D_px_person00.trc
DataRate	CameraRate	NumFrames	NumMarkers	Units	OrigDataRate	OrigDataStartFrame	OrigNumFrames
30.0	30.0	10	22	m	30.0	313	358
Frame#	Time	Hip			RHip			RKnee			RAnkle			RBigToe			RSmallToe			RHeel			LHip			LKnee			LAnkle			LBigToe			LSmallToe			LHeel			Neck			Head			Nose			RShoulder			RElbow			RWrist			LShoulder			LElbow			LWrist			
		X1	Y1	Z1	X2	Y2	Z2	X3	Y3	Z3	X4	Y4	Z4	X5	Y5	Z5	X6	Y6	Z6	X7	Y7	Z7	X8	Y8	Z8	X9	Y9	Z9	X10	Y10	Z10	X11	Y11	Z11	X12	Y12	Z12	X13	Y13	Z13	X14	Y14	Z14	X15	Y15	Z15	X16	Y16	Z16	X17	Y17	Z17	X18	Y18	Z18	X19	Y19	Z19	X20	Y20	Z20	X21	Y21	Z21	X22	Y22	Z22
313	10.462558356676004	482.10552083348557	968.9976267857247	0.0	416.2010415625587	991.5581326747949	0.0	431.47110678046374	1250.256704937499	0.0	464.02821349505695	1498.5140565154159	0.0	459.03687489620313	1599.998701515426	0.0	421.97431013767715	1590.2005839093079	0.0	485.20641434833556	1533.9284873842769	0.0	551.0413313516848	977.8381432081675	0.0	565.8185364836746	1194.269341568243	0.0	563.4085000956735	1486.1679987387488	0.0	557.7681407523465	1580.741744406846	0.0	592.0788228172523	1574.317362492548	0.0	553.1632608759572	1540.8920673866983	0.0	461.4978599118986	597.5667454770843	0.0	463.8936146761581	445.7128232434402	0.0	463.854512761572	568.3223648507305	0.0	339.5481710205098	646.9548797068499	0.0	290.13551301436155	811.9004231288127	0.0	275.7986047769148	949.6079063707186	0.0	581.9343902534506	628.385765557249	0.0	629.8021640427297	810.8513492649126	0.0	636.4548960562826	799.1594742526795	0.0
314	10.495985060690943	480.81425289014004	969.0758262536802	0.0	415.780456702705	992.7031019703392	0.0	431.0377142756367	1250.1643502930606	0.0	464.2869462098483	1498.1557436331325	0.0	458.5335693663582	1599.1600432849677	0.0	421.6446583932762	1589.891047421206	0.0	484.9318351240707	1533.9328297406885	0.0	549.9357416203912	977.1994274727659	0.0	562.3516269731526	1179.0230863229779	0.0	559.3873577991134	1484.6006129720208	0.0	562.7509978486671	1580.842435057213	0.0	593.0563572700534	1574.6873523200481	0.0	547.8278224782636	1538.2962735812093	0.0	460.9654436713711	594.2962091006798	0.0	463.91221117782544	444.23933426405546	0.0	464.125453979555	565.8518823203317	0.0	338.82585558544645	645.6917845610499	0.0	291.5306454895169	812.6423080356802	0.0	274.155207986637	949.7636139511645	0.0	580.5955806348868	628.0541327813626	0.0	629.0390262650144	809.8834279622821	0.0	636.9917337237773	798.805573399633	0.0
315	10.529411764705882	479.8629311970025	968.6562792186846	0.0	415.54976828084733	992.568447924895	0.0	429.5411454714586	1248.8682566908615	0.0	464.59211416781926	1498.3622831929074	0.0	457.24667055634905	1600.0941763391593	0.0	421.17832985372695	1590.7990869893551	0.0	485.1866314571163	1534.3240468461354	0.0	549.0674213334072	977.4007781700705	0.0	560.8692412224203	1172.9644628890574	0.0	556.7010852834402	1480.5858792511908	0.0	565.4871525254658	1578.6329879601572	0.0	593.0182906415083	1572.2847006527397	0.0	543.520584930653	1533.2293161917228	0.0	460.8869963866149	592.2226205330346	0.0	464.0236996816327	439.5825101877956	0.0	465.15985849091317	562.5128446885112	0.0	337.6104593190554	645.2110598067462	0.0	293.28054694912544	813.1685404389704	0.0	273.5869453504546	950.6339098307307	0.0	581.5341473550764	628.092555920279	0.0	628.7094503645275	806.5610982395131	0.0	637.4338023987871	799.6833460028296	0.0
316	10.562838468720821	479.27839718473444	967.0342375936123	0.0	415.3412250799742	991.4105974088042	0.0	428.0668454135819	1247.8226259794528	0.0	464.69262833304566	1499.455479496962	0.0	455.6667608594488	1601.640701393225	0.0	421.2033525286965	1592.2612290245218	0.0	486.59749185645944	1535.425121732473	0.0	548.232873894503	977.2839971496784	0.0	561.436487124268	1174.7289502646488	0.0	556.138910330633	1474.3652010987278	0.0	560.2246044485092	1573.9006906792456	0.0	587.4477006714044	1564.4334099668185	0.0	541.4053178462216	1528.94318909416	0.0	461.0207898844717	591.0806628952574	0.0	463.97807586154823	434.76122197128393	0.0	465.6453677900276	557.7248031284673	0.0	337.1198433415285	644.9233679228753	0.0	294.6184016244185	813.679846224877	0.0	273.84101572642055	952.1066385987024	0.0	583.4929998787475	628.631105459987	0.0	628.8148436447502	805.0205197059493	0.0	637.1651738657915	799.9333253617204	0.0
317	10.59626517273576	479.3053557771678	965.3046151676266	0.0	415.3265335154001	992.4564505734432	0.0	427.9711192184056	1250.0524780686949	0.0	464.67041979331725	1500.2576336071347	0.0	454.0950707033237	1602.156773106218	0.0	421.5758513856702	1592.0612589685873	0.0	487.5682928914368	1537.155006908885	0.0	547.5959965501227	976.4921042665562	0.0	562.1677097828695	1175.2511590387276	0.0	556.838024871842	1469.7410930237131	0.0	549.5671748304945	1569.8488344469924	0.0	577.4931713011692	1554.2451997480878	0.0	540.6696634130706	1527.1057650662635	0.0	461.1363628769993	590.4684597141008	0.0	463.56235672593095	432.34936684488673	0.0	464.3895688549571	552.5350942072009	0.0	337.5638655302484	644.5536380147972	0.0	295.1390673712882	813.8390868553366	0.0	274.0824430243322	953.3694436923186	0.0	584.5982112652198	630.0305910753789	0.0	628.4021615988233	807.575058065027	0.0	635.9265127091908	799.4607709252887	0.0
318	10.6296918767507	479.83440118009514	964.9389536773191	0.0	415.26383857340625	995.6598548901999	0.0	428.6614180935897	1255.0475334340113	0.0	464.53250426964104	1499.9017846389797	0.0	453.0357080999209	1602.1075370900749	0.0	421.8180903527891	1590.6197160861282	0.0	487.2097798578109	1537.8153052397975	0.0	547.961926060462	974.9069726354454	0.0	561.9577509326241	1173.492788483909	0.0	557.079722278766	1468.9246254540553	0.0	543.5921262204048	1569.3375518158682	0.0	571.8639984423484	1550.5381203100721	0.0	540.8577533326574	1528.2323028070384	0.0	461.00878033890075	590.7205834953213	0.0	463.1722162956744	430.16928746503754	0.0	462.4278983780605	548.5525623484118	0.0	338.1892772519263	644.2424662292855	0.0	294.9556510001699	813.9389514156891	0.0	274.2091771089966	954.3456216304082	0.0	584.4952354439064	631.2304196827471	0.0	627.2931808616829	810.1582248523606	0.0	634.5110002724299	799.1742725908621	0.0
319	10.663118580765639	480.11495766986627	965.4955381953833	0.0	414.36043733347805	998.7200512504489	0.0	428.834116384173	1259.2998945897348	0.0	464.1770123906158	1498.5150176271452	0.0	453.1547604059316	1602.474767932051	0.0	422.1593033199134	1589.740702966673	0.0	486.5210647127536	1535.628832652385	0.0	549.1965248857441	973.3167555774501	0.0	561.9301464773182	1172.4984345112546	0.0	556.956712492215	1471.1549665811624	0.0	547.1052228603979	1572.8243690680104	0.0	575.7111360943707	1557.943490014839	0.0	542.0608561561417	1531.1084261965639	0.0	460.4986241151477	591.3540996099379	0.0	463.2563895349399	426.98615905499827	0.0	461.81088785283936	545.520582223445	0.0	338.42458631894556	643.907636395429	0.0	294.44851763668044	814.8401593314887	0.0	274.29919179867625	955.3741223723431	0.0	584.2855734171501	631.1784761460588	0.0	626.2945226135009	809.7610959858669	0.0	633.7187524688018	799.9850037872748	0.0
320	10.696545284780578	479.9313652281519	966.3274158253173	0.0	413.3963959595905	1000.8200805277529	0.0	428.2692322334987	1261.4568552142948	0.0	463.9429269080733	1496.6441212756918	0.0	454.0777930438775	1602.340077486954	0.0	423.13617848981073	1589.1469364819457	0.0	486.0254390023666	1531.7899113762471	0.0	550.2363640413855	974.2327971155794	0.0	563.3038256805073	1172.5984752813647	0.0	558.0766202515548	1475.1665438214434	0.0	554.5337081824375	1578.9581495973682	0.0	584.2462429566596	1569.8926343046664	0.0	543.65270282335	1532.8775104748652	0.0	460.1420093227538	591.0450545101514	0.0	463.6413814682065	424.97254976583815	0.0	462.8496856461225	542.1316905254536	0.0	338.09556031865264	643.516291789161	0.0	293.98742724584173	816.3018771975445	0.0	273.9260119194525	955.8012713123219	0.0	584.7835077146115	630.5535893495914	0.0	626.3431948726073	808.8934457891708	0.0	633.5632372570703	802.2199349513817	0.0
321	10.729971988795517	479.9421656852507	968.2844495482968	0.0	413.9700537948503	1002.4103569186842	0.0	427.4884110858198	1262.8958779478603	0.0	464.1213092712757	1495.3178540815602	0.0	455.1825658174416	1600.6809709531685	0.0	424.4487425624008	1587.933439314634	0.0	484.7610712066469	1529.2474979257174	0.0	550.8756757711842	978.7830667180393	0.0	565.3227810877373	1175.342591412291	0.0	560.8381393613386	1481.7075854029174	0.0	558.7430558717688	1586.5425384198757	0.0	590.0909483126574	1580.005501497227	0.0	545.1140845333574	1534.8540954560558	0.0	460.5398763566268	589.4315972382856	0.0	463.9908839325742	423.61194116962844	0.0	464.1314572205789	537.6726519771988	0.0	337.4907977018543	643.2287021714013	0.0	293.7504836915521	817.4199921995518	0.0	272.9027564492227	955.4437213039015	0.0	585.5887880398553	630.7028393171471	0.0	628.3527638486096	810.2429213545751	0.0	634.2663191956842	805.7772281633171	0.0
322	10.763398692810457	480.22787169502044	971.9124735471748	0.0	415.15460919345367	1003.4507777208951	0.0	427.0875332626736	1264.3177161334577	0.0	464.4318308408387	1495.3231410752235	0.0	456.54036711555875	1598.6043419647353	0.0	424.9377679323453	1586.8878315742088	0.0	482.5896944508422	1528.8624743846376	0.0	551.4719089994824	984.3982415913771	0.0	566.8711987473619	1186.4108735187833	0.0	563.8510191411514	1494.371212901495	0.0	558.780892617234	1597.6809272087319	0.0	592.0610382021836	1591.9843367817743	0.0	546.3961207502474	1544.8305812082838	0.0	461.4331336929455	587.648576023188	0.0	464.51998792514394	419.02920819924	0.0	464.6625311687583	532.3010436997971	0.0	337.18581440660387	642.963701833326	0.0	293.73682884710627	817.8049073660711	0.0	271.6080471651708	955.5894624683702	0.0	586.1118600006955	631.5565035465811	0.0	632.2244916981965	812.6290800674974	0.0	636.7401270238613	810.5099240160515	0.0
